/* XPM */
static char *result[] = {
/* columns rows colors chars-per-pixel */
"48 48 35 1 ",
"  c #351D03",
". c #391F03",
"X c #3C2103",
"o c #442502",
"O c #482702",
"+ c #4D2A02",
"@ c #542E03",
"# c #582F01",
"$ c #573004",
"% c #5B3203",
"& c #643602",
"* c #673802",
"= c #6C3B02",
"- c #723E02",
"; c #764003",
": c #7C4304",
"> c #814704",
", c #854904",
"< c #8A4C04",
"1 c #914F05",
"2 c #945105",
"3 c #9B5404",
"4 c #A25600",
"5 c #A65900",
"6 c #AA5B00",
"7 c #B15F01",
"8 c #B56202",
"9 c #BD6602",
"0 c #BF6802",
"q c #C26902",
"w c #CA6E03",
"e c #CE7003",
"r c #D67504",
"t c #DA7704",
"y c #DC7804",
/* pixels */
"o:::;:;:X*:::;:*o>;:::;>X&::::>%O>--::->.*:--::-",
":r89999w@8q999w2=t89998w@8q998w2-r9q999e@0qq90q6",
":q565659@866658<-w566668@876658<:w465557@9765573",
"+<::,::: ;>::>>%O,::,:::.=:::>>%+<::<::> -,->,>=",
"*=== %======@ ===*== %======$ ====*= %===**=@ -=",
"0q9e%0q0909w2=t9qqqw%8w99q9w3*t99q9w@qw9qqqe1-y7",
"5658%8665658<=w45658%8765558<*w45657$9654557,-w4",
">:::X;>:,::,%o<:>::>X->:,::>&o,:,::>.:>>,>:,%o,:",
"X;==-==- &-===;$X;==-==-.%;===;$X--=-==- &-=-=-&",
":t9q9qqe@8wqq9e2=y0qqq0w%8w0qqe2:r9qqqqe@9wqq9w7",
":q465659@866658<;w465559@866558,:w455557@7656573",
"@<::,>:> ;>:>,>%O<::,>:,.->:>,,$@<:>,>:> :>>>>>=",
"=**= $=*=**=@ ===**= #=*=**=@ =****= %=*=&==+.=*",
"q90e$0qq0q9e2=y90q9w%9w9qq9w3*t9q99w@qw99q9e1=t9",
"5658#8665658,=w46658%8665567<*w36657@9665557,-w3",
",::>X:,:,>:,%O<:,::>X-,:,>:,*o<>>>>>.:>:<>:<%O<:",
"X-=====- %-===-#X-=====- %-===-@X-====== %=====&",
":r9qqqqw#8wqqqe2-y9qqq9e%8wqqqw2:yqqqqqe$qwqqqw7",
":q565559@875657<-w465658@776557<-w355557$7656573",
"@<::<>:>.-,:>,,%+1::,,:,.-,:,,<%@<>><>>> :>>><>=",
"*&&* #*&=&&=+ =***&= @=&&&&=@ =&&&&= %*****=+ =*",
"qqqw%9wqqq9w2=t9q99r%8wqqqqw3&y8q0qw$qqqqq9w2=t9",
"5658#9655567<=q45658%86555571&w46667$7655557<-q3",
"<:>,.:,:<,:<&+<><::,X:,><>:<&O<>,>>,X>>><>><%O1>",
"X-*===*- %=====@.-======.#-*===$o-====== %=*=*=&",
":r9qqqqw%8wqq0r2-t9qqqqw#8wqqqw2-yqqqqqe$qwqqqw7",
":q465558@865548,-w455549$775547<-w364557@8754473",
"@1>><,><.:,>,<,&+1>><>>,.-<:,<<&@1>><,>,.-,>,<,-",
"&&&& @***&&*+ *&&&&*.@*&*&**@ &&*&&& %&&*&&*+ *=",
"9q9w#9w99q9w2=t9qq9w%8wqqq9w2&y9qqqw$qqqqqqe2=t7",
"5659#9656668<=w46658%8765557<*w46667$7765547,-w3",
",:>>.->:,::,%o<:,::>X->:,::,&o<:,->>.>,-,>>,%O<>",
"o:--:-::.&::-::%X>-----:X&---->%o>--:--: *:---:=",
":r9q999w$9q0q9w2-y9qqw9e$8wq99e2:t9q0qqw$0qqqqw6",
":w566659@776657<-w576669$885667<:w465559@8766673",
"+,-->:-: =:-:>:%O,-->--: -:-:>>$+<-->:-: =:-:::*",
"-==-.&-=-==-@ --====.%-=-==-$ -=====.&-====-$.-=",
"9q9w#9q99q9w2=t9qqqw$9w9990w3*r9qq9w$qqqq00w1=r9",
"5669#8766658<=w46659$78656581*w66669$0665669,-w4",
">--:.-::>:::%o,-,--:X->->:->%o>-:-:-.-:->:->$o,-",
"o------- &:---:%o-------.&----:#O------- &-----=",
">r9qqqqw%8qqq9w2=yqqqq9e$8wqq9w2:r9qqqqw$qwqqqq7",
">w666669@866558<-e476769@776658<:w575679@9666383",
"+>--,:-: -:::>>%O<-->-->.=>-:>>$+,-:,--- =:->>:=",
"=*=- &==-==-# -=====.%-=-*=-$.-=-*== %===*=-$.-=",
"qq9w$qqq9q9w2=t9qq9e%8w99q9w2&t9qqqw$wwqqqqe1-r9",
"5547@7545446,&q34447@7644546<&q36337+8544438>=q3",
"2222O<222223-@512213+,322223-+422222O1222213-$31"
};
