/* XPM */
static char *result[] = {
/* columns rows colors chars-per-pixel */
"48 48 73 1 ",
"  c #040D0E",
". c #050E13",
"X c #090F14",
"o c #070D19",
"O c #071013",
"+ c #0A1115",
"@ c #0D1319",
"# c #121715",
"$ c #121917",
"% c #11171B",
"& c #141B1B",
"* c #1A1E1B",
"= c #1D221D",
"- c #21251E",
"; c #24291E",
": c #2A2D1F",
"> c #161C22",
", c #191E23",
"< c #1E2323",
"1 c #1E232A",
"2 c #222622",
"3 c #242922",
"4 c #2B2E22",
"5 c #21262C",
"6 c #242A2C",
"7 c #2B2E2B",
"8 c #2D3124",
"9 c #2D312B",
"0 c #313326",
"q c #33352B",
"w c #36382B",
"e c #3A3C2D",
"r c #222630",
"t c #252B32",
"y c #2A2E34",
"u c #2A2F39",
"i c #2D3234",
"p c #2E333C",
"a c #333633",
"s c #363935",
"d c #3D3E33",
"f c #31353D",
"g c #353A3B",
"h c #3A3D3C",
"j c #403F31",
"k c #3F412F",
"l c #3F4131",
"z c #3D413B",
"x c #404132",
"c c #41443C",
"v c #2F3540",
"b c #313541",
"n c #343A44",
"m c #393E44",
"M c #373F49",
"N c #393E49",
"B c #3D4245",
"V c #354049",
"C c #3C424B",
"Z c #3F4551",
"A c #434544",
"S c #464942",
"D c #494A43",
"F c #41434A",
"G c #41484F",
"H c #4A4C4C",
"J c #424753",
"K c #444953",
"L c #484B51",
"P c #4B4E5A",
"I c #4D515B",
"U c #51545D",
"Y c #535661",
/* pixels */
"SedecUAdkGIZ1O@$9UUHdHUUAcUJBlldjjdjjddBNCNLUcej",
"AsDmgKs08zzn1$O=aAFA0shcqqAzq0wqqqqqasamNnnNJnas",
"BnYNfVq3480p5=O7kwzg43:078eq0:00400:pbfNnvfbNbvb",
"Fpn747qq8884;& 7e499q84848qq4448q84:0abfnvNNbbbf",
"Fu9984874444==O7e0840440440444808484849fnpnbbbbf",
"Fi49q484448k=$O7k08:440084744:904444444mMpvffbbb",
"Fi844::8:004;=O8e::8q88844q44440483*804fbpbbbNNp",
"Fu49ii8:488:== 7e::8888:48044444443*00-qffbbpbnp",
"Fu4ubby:4448== 7e4:4::44444444:8844*84*4qfpbvppb",
"g5fffffy8:::;&O4e44488:44844488::44:23q844fgbbvb",
"myguunff57ii2&.9e4:4=:8444444;:44448=2q8445ybvbf",
"Ffft5ffu1ipg5&.3e34;=4444::4;=:44444-2q844<6bubf",
"Fu5ybft6gt6nt<.9l8=;82-884===884=44*00883=49gryf",
"m65ruy5161111=.<<===2==;3=**=33==-<*-3;22*2tt55y",
"g,5555**=====&OO@===*<<*==<=<*===****,*,==511515",
"tXo@XXXXOOOOOOOoOOO+XXXXXXXXXXX.+O@@@OXXX XX@oX@",
"s223<33222233223343<3322323223333&X+%1tupppi:27i",
"Dlxlxllxllxdlxlxllllxxkkllxjxxddl*XX,iCPIIYHedAU",
"Sek08:0q840dq8q088004004q0488q044=%XMIINfnPZumNn",
"SsBa9si948qq08888888888:8844404443*XnKZNnpCVnnnu",
"BbCnnCnp40q390448q8444:84444444446, pMuNnvbnNbpv",
"FpnvbvMg440q8:84:844:48q444q040qft>XCKunnCbbnNNf",
"Fubbbpnbaay08:8884440848740044qff6>XgAnnnNvbnNbf",
"CuvbbbbbZnp488:00848w88470q444ibf6>.8zBfinunCvvv",
"FvpnMbbbvvni88::8:4:44:=40844:abC6&.9d7974pbnfpf",
"Nppnnbiyi9iV9:8:447iq96*7q4844iag3&O0w3444uvpyuf",
"Fpnfvv94::9Ci8888:affby*0q444:4:4=&.qw4444inf5tn",
"Fibbp1ia4ivn624:4ft6f520444::*448-&.9e444<0afppn",
"m6vi726y:4yvyyiiattuf6,474-4:22;8-&O0e43244069it",
"q=n944==4-<pbffbu1ugbt5*48*344=-:-&O9w4=;q42=321",
"a*3<-=<====256rrr5r6655532=----==2&O#&2==---<<=<",
"9@$$&$&&&$&$&>>&>>>>>>&>&&&$&$$$&&%Xo@&%&%%%%$&&",
"t +++OOOOOXXXXXXO+X+o+O+@O+OXXX@XOXO++XXXX OOXOO",
"z8aqwqqaqwwwqeqqdKJgX+&>nJKsqsqqqwqqwq0w0wwwwqq4",
"c0xewwwewwweeedwaBLV>@>nKIGzsewwwweewqqdewewqdeq",
"d4k0:8884:8044q44:gg1@1YIJipaq44448q4::ew:0840qq",
"d4ww8:8844480q748q871@1UNbgaq7444088480044400090",
"z408088:4444400488ai1+1UZvp98:498800480044070087",
"c88:8q8:4:48:4q78:Vn1$1IZnf944q0::80844004q04443",
"d44:88884480848488gp1@1UNvnpa0448:88400444444q07",
"s40444444:3q0:8:4096<$<Hbffbfai8;4848:88:44:4004",
"d4q0:4:48--q94:88::4=+$zsfbbfbfu=808:8:844444:44",
"d4744804-494--8:8483<+=l0ybttfbu<98:844=;4844444",
"z3444;34-449;;443;:3=+=Sa7utybut169a4;43;4:;;444",
"d3443*;34=-q04451*34=+1YNu,pbbr111uZ5==344=**447",
"g-225<2-2-222-<2516<#@@,665rtt6561tt<<==2-<<-253",
"i#&&&&&&&&&&&&&>,>>>+++X%,>>,>>>>><&&&&&&&&&&&,>",
"7 @XXXXXXXO+@+OOXXXX+O+++XXXXXXXoOOo+o+OXXX@@@XX"
};
