/* XPM */
static char *_371233997ac472df2ea3d2a630fbbf5Vr2ymJ8RRLO5pfcu[] = {
/* columns rows colors chars-per-pixel */
"48 46 187 2 ",
"   c #552B15",
".  c #553A27",
"X  c #5E3A24",
"o  c #643F29",
"O  c #723E26",
"+  c #60442F",
"@  c #6B412B",
"#  c #76432A",
"$  c #644432",
"%  c #6A4632",
"&  c #664936",
"*  c #6E4B35",
"=  c #624839",
"-  c #6C4E3B",
";  c #734C35",
":  c #7A4D35",
">  c #734E3A",
",  c #794F3A",
"<  c #6F513B",
"1  c #7F5036",
"2  c #74523D",
"3  c #7B533C",
"4  c #675343",
"5  c #6D5342",
"6  c #755642",
"7  c #7B5642",
"8  c #775844",
"9  c #7C5A44",
"0  c #755C4B",
"q  c #7C5D4A",
"w  c #7E614D",
"e  c #7D6452",
"r  c #824A32",
"t  c #82553C",
"y  c #8B543C",
"u  c #85593D",
"i  c #8B5A3F",
"p  c #915B3F",
"a  c #835642",
"s  c #8A5741",
"d  c #845B45",
"f  c #8C5B43",
"g  c #835E4A",
"h  c #8B5F49",
"j  c #935D43",
"k  c #915F48",
"l  c #846146",
"z  c #886046",
"x  c #84614D",
"c  c #8C634D",
"v  c #8D684E",
"b  c #956146",
"n  c #996044",
"m  c #93644C",
"M  c #9B654A",
"N  c #94684E",
"B  c #9C694F",
"V  c #856552",
"C  c #8B6552",
"Z  c #856955",
"A  c #8C6A55",
"S  c #856A59",
"D  c #8C6D5A",
"F  c #926652",
"G  c #9B6751",
"H  c #946A54",
"J  c #9B6C54",
"K  c #936D5A",
"L  c #9B6E59",
"P  c #85705F",
"I  c #8C705D",
"U  c #987057",
"Y  c #94715D",
"T  c #9C725C",
"R  c #A06547",
"E  c #A2674A",
"W  c #A26A4E",
"Q  c #A36D53",
"!  c #A96E50",
"~  c #A26F5A",
"^  c #A57155",
"/  c #AA7255",
"(  c #A3735C",
")  c #AA755C",
"_  c #A3795F",
"`  c #AC795D",
"'  c #B17555",
"]  c #B0775A",
"[  c #B2795C",
"{  c #B97E5F",
"}  c #867464",
"|  c #8C7363",
" . c #8B7B6D",
".. c #947562",
"X. c #9B7562",
"o. c #957965",
"O. c #9C7965",
"+. c #947B6A",
"@. c #9C7D69",
"#. c #A27662",
"$. c #AC7762",
"%. c #A37A64",
"&. c #AC7B64",
"*. c #A47D6A",
"=. c #AA7E69",
"-. c #B27C63",
";. c #B97D65",
":. c #B37E68",
">. c #9E816D",
",. c #958375",
"<. c #9C8373",
"1. c #9D8A7B",
"2. c #A88067",
"3. c #A4816D",
"4. c #AB826C",
"5. c #B38166",
"6. c #BA8164",
"7. c #B2846C",
"8. c #BA856C",
"9. c #B7896E",
"0. c #A48572",
"q. c #AA8672",
"w. c #A58976",
"e. c #AC8975",
"r. c #A48C7C",
"t. c #AD8C7B",
"y. c #B48771",
"u. c #B38B75",
"i. c #BA8B74",
"p. c #B38E7A",
"a. c #BA8D78",
"s. c #A5907F",
"d. c #AD917E",
"f. c #B29077",
"g. c #B99076",
"h. c #B4927D",
"j. c #BB937C",
"k. c #C38769",
"l. c #C4896B",
"z. c #C28E74",
"x. c #C58E79",
"c. c #CE9477",
"v. c #C3947B",
"b. c #C5987D",
"n. c #A49384",
"m. c #AC9483",
"M. c #AD9A8C",
"N. c #B39582",
"B. c #BA9581",
"V. c #B59987",
"C. c #BC9985",
"Z. c #B29688",
"A. c #B39C8B",
"S. c #BB9D8B",
"D. c #B29F90",
"F. c #BA9E90",
"G. c #B6A293",
"H. c #BCA394",
"J. c #BDAA9B",
"K. c #C19682",
"L. c #C29A85",
"P. c #CA9C84",
"I. c #C19D8A",
"U. c #C3A28C",
"Y. c #C3A691",
"T. c #CAA793",
"R. c #C6A997",
"E. c #CBA995",
"W. c #C5AC9B",
"Q. c #C9AD9D",
"!. c #C8B19F",
"~. c #D1B29E",
"^. c #C5AFA1",
"/. c #C2B1A1",
"(. c #CDB7A9",
"). c #CDBAAA",
"_. c #CAB3A1",
"`. c #D9B8A5",
"'. c #D3B8A8",
"]. c #CDBFB2",
"[. c #D5BFB1",
"{. c #D3C7BB",
"}. c #DAC8BA",
"|. c #E9D3C4",
" X c #E9D8C8",
".X c #E2D2C3",
"XX c #F4DFCE",
/* pixels */
"#.H V X.H &.7.9.#.F L $.:.$.#.f m ~ ! ! [ ] j $.:.7.$.=.$.h ) / ) / ) M W $.-.;.;.$.M :.8.;.-.;.",
"e.0.V V 9 7 3 d L K k s a f f 7 , m m k k W k k k k f h h s j s y y j y r j s s s s k G b j p j ",
"|.}.F.H.D.+.d.t.y.y.:.y.J B.L.T.E.E.K.#.a.K.K.8.8.G L =.&.8.:.$.m ~ $.-./ Q Q s ~ =.L.y.7._ f $.",
",. .r.m.1.4 1.0.V h h G a A K t.@.D H Y y.#.J h G a s G G G G ~ m F G Q Q Q ~ G $.#.#.*.q.O.f G ",
"J.n.V ..| <.M.G.S 6 X.#.=.#.Y 8 D o.q.q.#.X.$ g K L L H h g L G ( K O.l h J J $.Q F 7 q Z K %.L ",
"G.w.g *.t.S.m.W.Z.| y.#.#.m.*.V m.N.0.*.*.w.= 0.B.=.a.7.L H I.=.O.h.R.3.K &.&.$.~ #.g m.R._.y.7.",
"D ..%.T N K H g C L a 7 g g 6 | D g V C q 0 e P q 7 h a a F F d V ..| 0 C c g g h a , A A X.H h ",
"T X.#.( h $.y.L =.N.K 9 *.K D Q.t...X.q.*.S ^.(.o.K &.L J 7.=.Y V.!.} w.C.0.@.N.q.X.*.#.K K #.#.",
"X.H C H H G F L C 7 C - g q & 0 S g g D V g | +...H J ~ #.G H X.+.I e ..K D A L D C F F Y Y H L ",
"C.p.L e.y.i.a.a.=.K S.V.w.m.O.S C m.@.*.N.N.+.D p.a.i.i.K.#.B.F.F.Z.Z.w.V X.X.L #.i.=.L L.C.N.=.",
"C c C C F H F c 7 9 O.o.q C K V ..*.D *.*.D V D c c F F C c *.t.H.J.F.t.A D c F G F F Y X.N.B.X.",
"T X.=.#.X.h A X.X...Y m.+.*.N.*.*...D 6 F X.*.X.H F h L L %.A D 0 0 D D %.#.T h F L L *.F K d g ",
"F h c L H a g X.X.Y K t.0.O.q.K ..K K g L H H H ~ L k ~ T L L X.C C ..L T ( %.m ~ $.#.~ ( #.a L ",
"+.*.H a G L $.H h a a 7 C C h a 7 C L =.#.L X.h h ~ L m m h a C 4.3.H J c a B ( M f k s f G ( H ",
"}.XXt.C $.) ) $.&.J ~ $.7.-.&.&.C B.I.p.p.B.`...L :.;.$.$.$.m *.t.C.f.e.3.9 =.i.-.-.:.~ m 9.5.7.",
",.+...=.Q j j M M ) ( M k j k j k #.K g g A ..=.=.Q j k G m k g 9 C H c A l N J j j j M b k i j ",
"h.U &.-.6.W -.g.x.x.z.8.*.v.x.8.;.$.F g q.q.I.=.B.:.$.k.;.;.-./ J B B W ` [ b n M E E [ 6.p p [ ",
"( N p W B ^ / U F h k L L %.F H m G F C Y ..t.V C F G Q W E j M J ) / / / ! ! [ ' ' ! R ! n R ! ",
") / M 6.6.6.] ^ ( , L X.=.t.Q.0.*.t.*.*.o.S S K G $.K.8.:.~ -.-.8.P.P.i.8.z.c.c.k.l.n ! 6.{ k.{ ",
"W M p M n n n B F 9 *.#.X.@.m.,.Z.1.@.*.@.S V C k F G G F h Q Q J H X.U ^ ^ W M M B i U ( ! Q W ",
":.M / [ i M 2.` l ..O.C m L q | +.| g K ..C F X.T u m N C L G F 9 V S Y $.-.J ( g._ H C.a.*.=.T ",
"( b B Q L 7.7._ %.C.N.X.T q.S r.F.Y.X.N.B.=.~ i.4.F 7.7.T #.y.#.Y U.|.>.U &.c e.C.B.X.C.'.w.u.u.",
"B 9.T f.U.q.#.T ..C Z ..X...| | V K #.X.L L L d t t m d 3 : , : 2 D ..8 2 3 > c U K c A K A K F ",
"J ( 7 S.R.q.q.q.*.d q.t.t.w./.).g *.=.=.=.y.#.o G f t t z ; H a.u.3.V.Y.A 2.u.4.*.=.*.x *.4.#.%.",
"z c 9 7 3 7 7 7 d 3 C c g q D S g c h a , a h a N N h c d H U v A U >.Y 3 9 N z h h m c T H 3 l ",
"S.U.h.3.X.K 7 %.#.2.*.*.D V +.3.=.#.=.g H =.y.a.j.P.*.t.h.j.3.>.I < o.Y %.T H z a B L 4.2.T X A ",
"P Z 6 q x 7 ; L U L T T Y D ..Z g z h a H C h C m c > O.>.0.0.w.w.P f.Y H U ^ N B ( U c H H % S ",
"1.M.S Y O.#.X.%.2.T 9.u.B.R.R.d.H *.#.q.=.L H c F C x x 9 + e w 1.,.Z N @ : r p j u   ; T U U w ",
"G.(.0.Z X.Y H K H T %.T D H.(.n.D @.#.#.T =.L L 2.%.O.T T + >.d.!.A.f.g.; 1 z z i u @ Y e.4.2.2.",
"0 w q > o g g c D 4.q.A @.| } ,.m.C d C U T X.K 3 l U w w - e e w 3 3 z U 9.5.b.9.7.O.x ; < l l ",
"T X.L N C Z.Z.N.j.S.d.>._.J.].{.).r.*.C.g.j.g.g.D e.b.f.J.}. Xw A T 2.9.b.g.U b.j.b.b.j.U < 2.Y ",
"( %.K.v.=.Y C g 8 Z Z S e e  . .n. .0 Z V c l z 2 9 9 Z r.G.,.Z U N u 1 b N N 2.u 1 u N A 8 l v ",
"~.>.U.L.u.O.K C 7 *.4.e.2.2.Z e 1.M.^.H.m.Y 2 T T F G T % 7 H 7.z.v.%.o U 2.b.g.7._ 3 U L &.&.9.",
"o.x A H H C C g A *.K v N U S w w.w.n.n.r...7 L J J J J : c B M j G G ; _ T T U T T 3 %.( ( ) ( ",
"h y.*.( :.=.Y L y.$.F A H 7 d T K h g C - g p.&.J %.%.~ ) ~ F G $.( c H U F d c l 3 N h : l F z ",
"F H H c ~ #.H F J T H ..%.V C 2.Y c T T 8 Z X.T K T #.H ( =.#.H #.( c %.T c T %.X.z H k d u.a.*.",
"X.C Y =.#.X.@.Y F X.g g q 5 $ q S V C D D x c D *.K A Y Y K K D V A 6 w C H A v l 9 b t u z A 3 ",
"K K *.*.@.=.q.D X.w.K I | 4 4 @.@.*.*.w.<.D *.q.q.f.t.@...0.w.0.0.q.S w.0.w.3.q.3.3 T ( T c c ; ",
"o 7 7 6 8 q x H X.X.C q | x 4 e q g V V x q x 7 < w Z 0 6 V e g V g 5 | D Z C x l @ 1 1 : 9 l 2 ",
"m.w.*.Y 8 ....0.I.B.O.+.m.m.r.| I - 6 g g O.K D . e | I Z Z D 5 I O.w.*.w...6 A x T ( %.l D e.q.",
"U >.>.A w I Z D X.Y w w Z V A Z ..q 9 q 7 ; > 7 & D I C q g V < K D ..+.o.I x Y H g a z ; l H A ",
"l 2 l v D w v < 9 I D I I Y 9 A Z >.0.*.X.q t.q.w.C V 7 ; x 9 x g c - & w A Y U L t F *...I V l ",
"w 8 I I D Z Y 8 Y f.w.3.2.0.V I ..@.O.X.O.6 q 8 ..e.X.7 6 c v c h A - - x X.2.U K g d A I U T w ",
"2 w 9 < < 8 w v l v 9 * w 9 A D Z 9 9 d d V x g * g g h C c l l F F Y V l 2 @ 2 3 ; d 2 + 2 w 2 ",
"U 2.Y D 9 >.>.2.>.2.Z 9 3.T >.2.3.Y c m G G ( %.7 %.%.O.2.e.q.T u.3.p.e.f.A l 2.2.2.5.2.; v D v ",
"; 2 3 2 < 9 2 ; 2 < * w w 8 2 * 2 * : r # # r # % h g d z l 9 2 x 7 3 9 w v D z 1 b i z * ; ; 2 "
};
